<svg xmlns="http://www.w3.org/2000/svg" viewBox="0 0 160 32" fill="none">
  <path d="M14.5 16C14.5 9.7 12 5.5 10 3.5C9 2.5 7.5 1.5 6 1.5C3 1.5 1 4 1 8C1 12 3.5 15.5 6 15.5C7.5 15.5 9 14.5 10 13.5M14.5 16C14.5 22.3 12 26.5 10 28.5C9 29.5 7.5 30.5 6 30.5C3 30.5 1 28 1 24C1 20 3.5 16.5 6 16.5C7.5 16.5 9 17.5 10 18.5" stroke="white" stroke-width="2" stroke-linecap="round"/>
  <ellipse cx="16" cy="16" rx="6" ry="14" stroke="white" stroke-width="2" transform="rotate(45 16 16)"/>
  <ellipse cx="16" cy="16" rx="6" ry="14" stroke="white" stroke-width="2" transform="rotate(-45 16 16)"/>
  <text x="35" y="22" fill="white" font-family="system-ui, sans-serif" font-weight="bold" font-size="18">React Bits</text>
</svg>
